<svg xmlns="http://www.w3.org/2000/svg" viewBox="0 1.4500000476837158 90.75 59.89999771118164" data-asc="0.851" width="90.75" height="59.89999771118164"><defs/><g fill="#d2d2d2"><g transform="translate(0, 0)"><path d="M8.45 44.50Q7.30 44.50 6.10 44.35Q2.95 43.95 1.48 42.47Q0 41 0 39.30Q0 37.45 1.63 35.95Q3.25 34.45 6.25 34.45Q8.25 34.45 10.60 35.25Q11.60 35.55 13.08 36.27Q14.55 37 16 37.75Q17.45 38.50 18.25 38.95Q20.45 36.80 22.33 33.97Q24.20 31.15 25.90 27.92Q27.60 24.70 29.35 21.40Q31.10 18.10 33.02 14.97Q34.95 11.85 37.30 9.25Q34.70 7.65 31.58 6.77Q28.45 5.90 25.15 5.90Q23.90 5.90 22.63 6.05Q21.35 6.20 20.05 6.45Q15.40 7.45 12.20 9.62Q9.00 11.80 7.38 14.37Q5.75 16.95 5.75 19.25Q5.75 20.95 6.65 22.25Q7.55 23.55 9.40 24.10Q10.75 24.50 11.75 24.50Q13.40 24.50 14.63 23.82Q15.85 23.15 16.70 22.15Q17.55 21.15 17.98 20.20Q18.40 19.25 18.45 18.65Q18.45 18.30 18.90 18.30Q19.60 18.30 19.45 19.15Q19.20 21.15 17.95 22.62Q16.70 24.10 14.95 24.92Q13.20 25.75 11.35 25.75Q10.15 25.75 8.85 25.35Q6.55 24.55 4.98 22.57Q3.40 20.60 3.40 17.90Q3.40 15.25 5.17 12.57Q6.95 9.90 10.85 7.75Q14.75 5.60 21.05 4.70Q23.15 4.40 25.30 4.40Q28.85 4.40 32.27 5.25Q35.70 6.10 38.75 7.70L40 6.25Q40.45 5.85 41.27 5.25Q42.10 4.65 42.95 4.10Q43.80 3.55 44.20 3.40Q44.85 3.15 45.25 3.15Q45.55 3.15 45.55 3.30Q45.55 3.65 44.75 4.15Q44.25 4.50 43.85 4.92Q43.45 5.35 43.25 5.60Q42.50 6.65 42.08 7.30Q41.65 7.95 40.95 9.00Q45.55 12.05 48.45 16.87Q51.35 21.70 51.35 27.90Q51.35 29.20 51.20 30.55Q50.90 33.75 49.45 36.35Q48 38.95 45.67 40.75Q43.35 42.55 40.52 43.52Q37.70 44.50 34.60 44.50Q33.45 44.50 32.30 44.35Q27.40 43.75 24.23 42.77Q21.05 41.80 18.65 40.75Q14.10 44.50 8.45 44.50M33.75 43Q37.75 43 40.83 41.27Q43.90 39.55 45.80 36.75Q47.70 33.95 48.05 30.70Q48.20 29.50 48.20 28.30Q48.20 22.85 45.88 18.37Q43.55 13.90 39.75 10.85Q37.55 14.30 35.23 18.15Q32.90 22.00 30.55 25.77Q28.20 29.55 25.98 32.75Q23.75 35.95 21.80 38.05Q21.45 38.35 20.93 38.92Q20.40 39.50 19.85 39.85Q22.20 40.90 25.20 41.75Q28.20 42.60 32.25 42.95Q32.70 43 33.02 43Q33.35 43 33.75 43M7.35 42.95Q10.10 43.10 12.50 42.27Q14.90 41.45 16.95 39.95Q15.15 39.10 13.30 38.17Q11.45 37.25 9.40 36.50Q8.05 36.05 7 36.05Q5.15 36.05 4.20 37.07Q3.25 38.10 3.25 39.35Q3.25 40.70 4.30 41.77Q5.35 42.85 7.35 42.95ZM54.95 61.35Q53.25 61.35 52.05 60.90Q50.15 60.20 49.27 59.27Q48.40 58.35 48.40 57.30Q48.40 55.95 49.72 54.47Q51.05 53 53.40 51.63Q55.75 50.25 58.80 49.22Q61.85 48.20 65.30 47.70Q66.85 47.45 68.72 47.30Q70.60 47.15 72.53 47.02Q74.45 46.90 76 46.90Q77.85 43.75 79.03 40.95Q80.20 38.15 81.10 34.50L81.30 33.70Q80.35 34.60 78.63 35.88Q76.90 37.15 74.63 38.42Q72.35 39.70 69.78 40.55Q67.20 41.40 64.50 41.40Q62.40 41.40 60.45 40.75Q58.35 40 56.67 38.22Q55 36.45 54.02 33.82Q53.05 31.20 53.05 28.00Q53.05 25.65 53.65 22.97Q54.25 20.30 55.60 17.50Q54.05 15.90 53.17 13.95Q52.30 12.00 52.30 9.95Q52.30 8.15 53.05 6.37Q53.80 4.60 55.40 2.95Q55.85 2.45 56.25 2.45Q56.45 2.45 56.45 2.65Q56.45 2.95 56.10 3.35Q54.95 4.75 54.40 6.30Q53.85 7.85 53.85 9.40Q53.85 11.15 54.52 12.85Q55.20 14.55 56.45 16.00Q56.70 15.50 56.97 15.00Q57.25 14.50 57.55 14.00Q59.95 10.10 63.42 7.30Q66.90 4.50 70.85 2.97Q74.80 1.45 78.55 1.45Q79.20 1.45 79.83 1.50Q80.45 1.55 81.10 1.65Q85.95 2.40 88.35 4.90Q90.75 7.40 90.75 10.50Q90.75 12.65 89.58 14.80Q88.40 16.95 86.03 18.75Q83.65 20.55 80.13 21.65Q76.60 22.75 71.95 22.85Q68.30 22.90 64.75 21.92Q61.20 20.95 58.75 19.35Q57.50 22.00 56.92 24.52Q56.35 27.05 56.35 29.25Q56.35 32.95 57.90 35.60Q59.45 38.25 62.20 39.15Q63 39.40 63.82 39.50Q64.65 39.60 65.45 39.60Q67.70 39.60 69.97 38.92Q72.25 38.25 74.20 37.15Q76.15 36.05 77.53 34.82Q78.90 33.60 79.35 32.55Q80.50 29.95 81.63 28.92Q82.75 27.90 83.65 27.90Q84.40 27.90 84.92 28.57Q85.45 29.25 85.30 30.40Q84.80 34.55 83.03 38.45Q81.25 42.35 78.45 46.90Q81.85 46.95 84.57 47.27Q87.30 47.60 89.50 48.15Q90.10 48.30 90.33 48.52Q90.55 48.75 90.55 48.90Q90.55 49.25 89.95 49.25Q89.65 49.25 89.10 49.10Q87.95 48.80 86.05 48.57Q84.15 48.35 81.97 48.25Q79.80 48.15 77.80 48.15Q75.70 51.15 72.83 53.57Q69.95 56 66.75 57.75Q63.55 59.50 60.47 60.42Q57.40 61.35 54.95 61.35M70.60 21.35Q71.15 21.35 71.70 21.32Q72.25 21.30 72.80 21.25Q77.85 20.75 81.38 18.92Q84.90 17.10 86.72 14.60Q88.55 12.10 88.55 9.70Q88.55 7.35 86.78 5.52Q85 3.70 81.35 3.15Q80.85 3.05 80.53 3.05Q80.20 3.05 79.65 3.05Q76.40 3.05 72.92 4.60Q69.45 6.15 66.33 8.92Q63.20 11.70 60.95 15.35Q60.40 16.30 60.10 16.80Q59.80 17.30 59.40 18.00Q61.45 19.55 64.38 20.45Q67.30 21.35 70.60 21.35M54.90 59.80Q56.85 59.80 59.50 59.08Q62.15 58.35 65.03 56.88Q67.90 55.40 70.55 53.25Q73.20 51.10 75.20 48.25Q72.80 48.30 70.47 48.47Q68.15 48.65 65.85 49.05Q63.40 49.45 60.77 50.42Q58.15 51.40 55.92 52.70Q53.70 54 52.32 55.32Q50.95 56.65 50.95 57.75Q50.95 58.40 51.52 58.90Q52.10 59.40 53.35 59.65Q54.05 59.80 54.90 59.80Z"/></g></g></svg>