<svg width="251" height="194" viewBox="0 0 251 194" fill="none" xmlns="http://www.w3.org/2000/svg">
<path d="M15.1614 28.853C15.1614 28.8759 15.1614 28.8989 15.6897 40.9329C16.218 52.9669 17.2746 77.0112 17.9467 89.1876C18.6188 101.364 17.9903 123.457 18.1159 119.972C18.2415 116.486 19.1135 87.4349 18.1159 77.7091C17.1182 67.9833 15.1354 55.2677 13.0511 45.7637C10.9668 36.2597 8.84103 30.3524 7.02336 26.1277C4.11785 19.3747 1.7755 16.5259 1.27738 15.9395C1.27248 15.9337 1.78213 16.5145 15.9399 23.4466C30.0977 30.3787 57.891 43.6431 73.43 51.3239C88.969 59.0046 91.4114 60.6998 93.7869 62.5605C98.508 66.2586 102.107 70.2788 104.709 74.0783C107.246 77.7823 108.347 82.3263 109.346 88.5889C109.984 92.5912 110.153 98.3673 110.228 102.978C110.304 107.588 110.091 110.883 109.521 114.272C108.952 117.661 108.031 121.045 106.824 124.368C105.617 127.691 104.153 130.85 102.628 133.588C99.7922 138.679 96.1478 142.575 92.0638 146.048C89.8982 147.89 87.1761 149.437 84.3765 150.854C81.5769 152.271 78.6883 153.394 73.3096 154.392C67.9308 155.389 60.1495 156.226 54.3893 156.65C48.6291 157.074 45.1258 157.06 41.7255 156.851C38.3252 156.642 35.1342 156.24 31.9189 155.63C28.7036 155.02 25.5607 154.215 21.7489 152.875C17.9371 151.535 13.5518 149.684 10.6409 148.236C6.2821 146.067 4.32446 143.946 3.06424 142.384C2.11434 141.206 2.0356 139.781 1.96053 138.477C1.88722 137.203 2.65847 135.918 4.1395 134.414C6.29084 132.229 10.0703 130.194 16.0874 127.234C19.9595 125.329 25.8072 123.279 43.9657 120.107C62.1242 116.935 92.4964 112.874 108.853 110.587C125.21 108.3 126.631 107.909 127.822 107.502C131.7 106.178 133.532 104.081 134.232 102.54C134.709 101.49 134.404 100.406 134.131 99.7469C133.494 98.2066 131.5 97.5298 129.327 96.9411C125.684 95.954 123.209 96.9658 121.182 98.0624C120.248 98.5681 119.79 99.551 119.408 100.496C118.113 103.698 119.216 108.513 120.848 112.147C121.4 113.376 122.151 113.94 122.922 114.435C124.887 115.698 126.734 115.24 128.155 114.979C129.78 114.68 130.968 111.375 134.64 101.17C135.377 99.1203 137.199 108.255 138.693 111.202C138.896 111.604 139.357 111.845 139.713 112.01C140.069 112.175 140.405 112.189 140.666 111.899C141.325 111.167 141.923 106.773 142.953 101.481C143.279 99.8051 143.463 100.235 143.868 102.072C144.273 103.909 144.959 107.155 145.479 108.723C145.999 110.291 146.331 110.083 146.884 108.91C148.399 105.694 149.49 102.352 150.846 99.8846C154.015 94.1151 156.564 92.8154 158.324 91.9436C160.224 91.003 162.948 91.7683 164.565 92.7455C166.458 93.8898 167.062 97.034 168.025 103.76C168.382 106.252 168.226 109.502 168.405 111.016C168.56 112.318 171.202 106.118 174.305 97.1069C175.412 93.8888 175.667 93.4541 175.823 93.4574C176.343 93.4682 176.442 99.3554 176.976 107.047C177.167 109.785 177.321 110.149 177.583 110.439C178.138 111.053 179.057 111.144 179.954 110.991C181.114 110.793 182.511 109.332 186.308 104C189.396 99.6628 194.2 91.5742 197.057 86.8078C201.936 78.6716 202.406 75.1891 202.491 73.4698C202.508 73.1164 202.119 72.8443 201.811 72.7106C201.503 72.5769 201.152 72.6085 200.823 72.852C199.254 74.0107 198.786 78.6944 197.924 85.7494C196.999 93.33 197.737 97.9246 198.056 98.8441C198.336 99.6542 199.12 100.359 200.04 100.982C200.722 101.443 201.51 101.435 202.347 101.431C203.345 101.427 204.907 100.419 208.814 95.5218C211.925 91.6222 216.426 84.1715 219.577 79.0039C222.729 73.8363 224.164 71.004 225.802 67.1571C227.44 63.3102 229.238 58.5345 230.466 54.455C232.642 47.2309 232.979 41.6426 232.005 42.0373C229.455 43.0703 228.862 51.9161 227.301 59.2602C225.74 66.6043 224.796 73.7436 224.312 80.2104C223.828 86.6772 223.833 92.2552 223.976 95.8517C224.282 103.577 227.134 107.439 229.567 110.458C230.67 111.829 232.204 112.42 233.603 112.801C234.327 112.998 235.128 113.008 236.032 112.677C238.07 111.931 239.97 109.405 241.938 106.194C244.083 102.693 245.436 98.0107 247.049 90.7945C248.096 86.1138 248.641 79.1748 249.02 73.858C249.398 68.5412 249.347 65.0084 248.935 61.1849C248.523 57.3613 247.752 53.3542 246.496 49.1793C245.241 45.0044 243.525 40.7832 241.558 36.8334C239.59 32.8835 237.424 29.333 234.856 26.057C232.288 22.781 229.385 19.8871 226.007 17.4253C222.629 14.9635 218.864 13.0215 214.633 11.758C210.402 10.4946 205.819 9.96871 200.78 9.73374C195.741 9.49877 190.385 9.57069 184.923 10.0565C179.461 10.5424 174.057 11.44 168.655 12.8791C163.254 14.3181 158.02 16.2715 151.058 19.7509C144.096 23.2304 135.563 28.1767 129.741 31.7964C123.918 35.4161 121.062 37.5592 118.364 39.8209C115.666 42.0827 113.212 44.3982 111.186 46.6558C107.416 50.8561 105.298 55.4116 104.027 59.9332C102.713 64.6078 103.608 69.8291 105.185 74.7847C105.976 77.2731 107.795 79.3135 110.317 81.4764C112.839 83.6393 116.275 85.7621 122.809 88.747C129.342 91.7319 138.87 95.5147 153.083 99.937C167.296 104.359 185.906 109.307 196.375 112.23C206.844 115.154 208.608 115.905 209.954 116.598C212.245 117.776 213.522 119.031 214.25 119.972C214.801 120.684 214.738 121.584 214.462 122.615C213.351 126.765 207.094 130.134 202.465 133.358C199.917 135.133 196.744 136.869 193.053 138.619C189.361 140.37 185.191 142.001 180.633 143.355C176.076 144.709 171.258 145.737 163.462 146.526C155.666 147.316 145.038 147.836 137.041 147.773C129.043 147.709 123.999 147.045 119.534 146.09C115.069 145.134 111.337 143.908 108.02 142.592C101.822 140.133 97.1982 137.295 93.9861 134.997C92.563 133.979 91.7878 132.961 91.2473 131.839C90.7069 130.718 90.4829 129.448 91.1345 127.671C91.7861 125.895 93.3201 123.65 112.345 108.556C131.369 93.4611 167.837 65.5846 187.668 50.154C207.498 34.7233 209.585 32.5833 211.098 30.6759C213.74 27.3451 214.664 24.2526 214.858 21.9C215.03 19.8099 212.706 17.8043 209.051 14.748C206.628 12.7211 202.774 10.0681 199.874 8.11616C195.163 4.94537 190.915 3.22545 187.053 2.0578C184.417 1.26047 182.404 1.47728 180.767 1.73677C179.246 1.97787 178.061 3.58409 176.821 5.6372C175.254 8.23096 174.648 12.5967 174.168 20.6682C173.841 26.1692 174.219 34.5574 178.66 59.1799C183.102 83.8024 191.818 124.414 196.643 149.634C201.468 174.855 202.137 183.454 202.826 192.304" stroke="black" stroke-width="3" stroke-linecap="round"/>
</svg>
